<svg xmlns="http://www.w3.org/2000/svg" xmlns:xlink="http://www.w3.org/1999/xlink" viewBox="0,0,256,256" width="48px" height="48px"><g fill="#ffffff" fill-rule="nonzero" stroke="none" stroke-width="1" stroke-linecap="butt" stroke-linejoin="miter" stroke-miterlimit="10" stroke-dasharray="" stroke-dashoffset="0" font-family="none" font-weight="none" font-size="none" text-anchor="none" style="mix-blend-mode: normal"><g transform="scale(10.66667,10.66667)"><path d="M11.54688,2.07617c-0.64428,0 -1.25054,0.08953 -1.74414,0.44336c-0.4936,0.35383 -0.72766,0.77273 -1.06055,1.2793c-0.26129,0.39814 -0.7723,1.31903 -1.51758,2.66797c-0.74528,1.34894 -1.67093,3.04853 -2.57617,4.72656c-0.90524,1.67803 -1.78948,3.33246 -2.44922,4.5957c-0.32987,0.63162 -0.60325,1.16553 -0.79883,1.56055c-0.09779,0.19751 -0.1744,0.35874 -0.23437,0.49219c-0.02999,0.06672 -0.05681,0.12499 -0.08203,0.19141c-0.02522,0.06642 -0.08398,0.00237 -0.08398,0.42188c0,0.68592 0.23204,1.45886 0.7832,2.25781c0.34455,0.50038 0.80938,0.92145 1.43945,1.11719c0.62959,0.19559 1.48014,0.03028 2.01563,-0.51562c0.27202,-0.27734 0.28565,-0.36634 0.45703,-0.63281c0.17138,-0.26647 0.38672,-0.61374 0.64063,-1.02734c0.50782,-0.82721 1.16413,-1.91389 1.87305,-3.07617c1.31824,-2.16126 2.7678,-4.46252 3.78711,-5.90234c1.02012,1.44065 2.47151,3.74136 3.79102,5.90234c0.70974,1.16236 1.36661,2.24896 1.875,3.07617c0.2542,0.41361 0.47104,0.7609 0.64258,1.02734c0.17153,0.26644 0.18349,0.35396 0.45508,0.63086c0.53523,0.54673 1.38526,0.71122 2.01563,0.51563c0.62941,-0.1953 1.09502,-0.61508 1.43945,-1.11523c0.55142,-0.79933 0.7832,-1.57256 0.7832,-2.25781c0,-0.41837 -0.05876,-0.35733 -0.08398,-0.42383c-0.02523,-0.06649 -0.05008,-0.12464 -0.08008,-0.19141c-0.05999,-0.13354 -0.13853,-0.29463 -0.23633,-0.49219c-0.1956,-0.39512 -0.46896,-0.92695 -0.79883,-1.55859c-0.65974,-1.26328 -1.54208,-2.91981 -2.44727,-4.59766c-0.90518,-1.67785 -1.83298,-3.37602 -2.57812,-4.72461c-0.74514,-1.34859 -1.25423,-2.26789 -1.51563,-2.66602h0.00195c-0.33878,-0.51803 -0.60262,-0.95019 -1.10742,-1.29492c-0.50481,-0.34473 -1.1071,-0.42969 -1.75195,-0.42969zM11.54688,4.07617h0.85352c0.49515,0 0.57006,0.04256 0.625,0.08008c0.05494,0.03752 0.23428,0.24127 0.56055,0.74023v0.00195c0.0856,0.13038 0.69689,1.19477 1.4375,2.53516c0.74061,1.34038 1.66409,3.0345 2.56641,4.70703c0.90232,1.67253 1.78303,3.32478 2.43555,4.57422c0.32626,0.62472 0.59772,1.14878 0.78125,1.51953c0.069,0.13938 0.11075,0.23122 0.15234,0.32031c-0.0073,0.29513 -0.02569,0.49443 -0.39062,1.02344c-0.12939,0.18818 -0.29775,0.29841 -0.36523,0.32617c-0.05253,-0.07006 -0.14042,-0.18605 -0.2168,-0.30469c-0.15674,-0.24341 -0.3702,-0.58395 -0.62109,-0.99219c-0.50179,-0.81647 -1.15858,-1.90537 -1.87109,-3.07227c-1.42062,-2.32658 -3.04191,-4.9448 -4.16016,-6.4707c-0.40159,-0.57859 -1.08289,-0.69727 -1.36914,-0.69727c-0.28502,0 -0.96451,0.22002 -1.30078,0.69727l0.00586,-0.01758c-0.0037,0.00503 -0.01,0.01643 -0.01367,0.02148c-0.00098,0.00142 -0.00291,0.00053 -0.00391,0.00195l-0.17578,0.25586v0.02148c-1.11005,1.54825 -2.61718,3.96394 -3.97461,6.18945c-0.71171,1.16685 -1.36793,2.25386 -1.86914,3.07031c-0.25061,0.40822 -0.46258,0.75071 -0.61914,0.99414c-0.07597,0.11812 -0.16558,0.23251 -0.21875,0.30273c-0.06858,-0.02872 -0.2365,-0.13921 -0.36523,-0.32617c-0.36395,-0.52758 -0.3831,-0.72521 -0.39062,-1.01953c0.04168,-0.08931 0.08479,-0.18188 0.1543,-0.32227c0.18355,-0.37072 0.45303,-0.89676 0.7793,-1.52148c0.65254,-1.24945 1.53317,-2.89954 2.43555,-4.57227c0.90238,-1.67272 1.82761,-3.36824 2.56836,-4.70898c0.74075,-1.34075 1.35129,-2.40575 1.4375,-2.53711c0.33412,-0.50844 0.51504,-0.72353 0.55469,-0.75195c0.03965,-0.02842 0.0844,-0.06836 0.57813,-0.06836z"></path></g></g></svg>